<svg xmlns="http://www.w3.org/2000/svg" width="19.438" height="15.81" viewBox="0 0 19.438 15.81">
  <defs>
    <style>
      .cls-1 {
        fill: #fff;
        fill-rule: evenodd;
      }
    </style>
  </defs>
  <path id="twitter" class="cls-1" d="M688.506,2209.26a4.119,4.119,0,0,1,3.155,1.26,6.526,6.526,0,0,0,2.045-.69l0.5-.27a4.025,4.025,0,0,1-1.295,1.87,2.183,2.183,0,0,1-.438.31v0.01a7.571,7.571,0,0,0,2.259-.61v0.01a6.523,6.523,0,0,1-1.353,1.55c-0.208.17-.416,0.33-0.624,0.5a11.363,11.363,0,0,1-.185,2.56c-1,4.48-3.638,7.52-7.819,8.83a12.152,12.152,0,0,1-5.648.23,14.039,14.039,0,0,1-2.347-.77,9.421,9.421,0,0,1-1.129-.58c-0.117-.07-0.234-0.14-0.351-0.22a5.939,5.939,0,0,0,1.276.05c0.392-.06.777-0.04,1.139-0.12a8.069,8.069,0,0,0,2.4-.87,4.11,4.11,0,0,0,1.08-.71,3.3,3.3,0,0,1-1.188-.21,4.011,4.011,0,0,1-2.531-2.55,4.036,4.036,0,0,0,1.782-.08,2.966,2.966,0,0,1-1.3-.52,3.842,3.842,0,0,1-1.88-3.42c0.137,0.06.273,0.13,0.409,0.19a4.83,4.83,0,0,0,.838.24,1.24,1.24,0,0,0,.545.04h-0.019c-0.2-.23-0.529-0.39-0.731-0.64a4.077,4.077,0,0,1-.9-3.62,4.935,4.935,0,0,1,.429-1.04,0.019,0.019,0,0,0,.019.01,2.341,2.341,0,0,0,.361.42,7.638,7.638,0,0,0,1.188,1.14,11.766,11.766,0,0,0,4.878,2.36,7.669,7.669,0,0,0,1.792.23,3.741,3.741,0,0,1,.019-1.88,3.96,3.96,0,0,1,2.26-2.68,5.572,5.572,0,0,1,.886-0.27Z" transform="translate(-675.281 -2209.25)"/>
</svg>
