<svg xmlns="http://www.w3.org/2000/svg" width="24.968" height="16" viewBox="0 0 24.968 16"><defs><style>.cls-1{fill:#fff;fill-rule:evenodd}</style></defs><path id="behance" class="cls-1" d="M622.086 2211.06h6.214v1.59h-6.218v-1.59zm8.577 9.41h-8.1c.087 1.96 1.041 2.69 2.755 2.69 1.238 0 2.238-.4 2.433-1.1h2.468c-.867 2.66-2.468 3.43-5.008 3.43-3.538 0-5.73-2.44-5.73-5.93a5.642 5.642 0 0 1 5.73-5.96c3.823 0 5.668 3.4 5.452 6.87zm-8.1-2.31h5.014c-.282-1.57-.956-2.22-2.454-2.22a2.312 2.312 0 0 0-2.556 2.22zm-3.891 2.51c0 3.16-2.671 4.52-5.471 4.52H605.7v-15.68h7.294c2.951 0 4.948 1.06 4.948 3.96a3.419 3.419 0 0 1-2.107 3.25 3.807 3.807 0 0 1 2.841 3.95zm-6.672-8.52h-3.19v3.64h3.45a1.8 1.8 0 0 0 2.084-1.85c.002-1.49-1.127-1.79-2.344-1.79zm.52 5.97h-3.71v4.28h3.645c1.346 0 2.517-.44 2.517-2.05.002-1.59-.995-2.23-2.45-2.23z" transform="translate(-605.688 -2209.5)"/></svg>