<svg xmlns="http://www.w3.org/2000/svg" width="35.219" height="20.38" viewBox="0 0 35.219 20.38"><defs><style>.cls-1{fill:#454546;fill-rule:evenodd}</style></defs><path id="icon-eye" class="cls-1" d="M409.549 1487.57v.04a.08.08 0 0 1 0 .02.271.271 0 0 1 0 .04.157.157 0 0 1 0 .03v.01a1.358 1.358 0 0 1-.368.74c-.369.45-.773.87-1.179 1.28a30.33 30.33 0 0 1-7.465 5.65 19.732 19.732 0 0 1-5.594 2.02 16 16 0 0 1-6.428-.09 24.271 24.271 0 0 1-9.965-5.18 27.322 27.322 0 0 1-3.817-3.68 1.407 1.407 0 0 1 0-1.9c.369-.45.772-.87 1.178-1.28a30.316 30.316 0 0 1 7.466-5.65 19.726 19.726 0 0 1 5.593-2.02 16 16 0 0 1 6.429.09 24.267 24.267 0 0 1 9.964 5.18 27.377 27.377 0 0 1 3.817 3.68 1.345 1.345 0 0 1 .368.74.034.034 0 0 0 0 .01v.2c0 .02.002.05.001.07zm-17.6-6.95a6.6 6.6 0 1 0 6.6 6.6 6.6 6.6 0 0 0-6.599-6.6zm0 9.9a3.3 3.3 0 1 1 3.3-3.3 3.295 3.295 0 0 1-3.299 3.3z" transform="translate(-374.344 -1477.31)"/></svg>