<svg xmlns="http://www.w3.org/2000/svg" width="32" height="32" viewBox="0 0 32 32"><defs><style>.cls-1{fill:#454546;fill-rule:evenodd}</style></defs><path id="icon-brightness" class="cls-1" d="M1220.5 1489.5h-4a1.5 1.5 0 0 1 0-3h4a1.5 1.5 0 0 1 0 3zm-2.44-11.44l-2.72 2.72-.78.78a1.5 1.5 0 0 1-2.56-1.06 1.488 1.488 0 0 1 .44-1.06l.78-.78 2.72-2.72a1.5 1.5 0 1 1 2.12 2.12zM1206 1494a6 6 0 0 1-5.22-3.04l-.59-1.48a6 6 0 1 1 5.81 4.52zm0-9a3 3 0 1 0 3 3 3 3 0 0 0-3-3zm0-6a1.5 1.5 0 0 1-1.5-1.5v-4a1.5 1.5 0 0 1 3 0v4a1.5 1.5 0 0 1-1.5 1.5zm-6.44 17.56l-.78.78-2.72 2.72a1.5 1.5 0 1 1-2.12-2.12l2.72-2.72.78-.78a1.5 1.5 0 1 1 2.12 2.12zm-1.06-14.56a1.505 1.505 0 0 1-1.06-.44l-.78-.78-2.72-2.72a1.5 1.5 0 1 1 2.12-2.12l2.72 2.72.78.78a1.5 1.5 0 0 1-1.06 2.56zm-3 4.5a1.5 1.5 0 0 1 0 3h-4a1.5 1.5 0 0 1 0-3h4zm10.5 10.5a1.5 1.5 0 0 1 1.5 1.5v4a1.5 1.5 0 0 1-3 0v-4a1.5 1.5 0 0 1 1.5-1.5zm7.5-3a1.505 1.505 0 0 1 1.06.44l.78.78 2.72 2.72a1.5 1.5 0 1 1-2.12 2.12l-2.72-2.72-.78-.78a1.5 1.5 0 0 1 1.06-2.56z" transform="translate(-1190 -1472)"/></svg>