<svg xmlns="http://www.w3.org/2000/svg" width="22.38" height="18.19" viewBox="0 0 22.38 18.19"><defs><style>.cls-1{fill:#8f8e91;fill-rule:evenodd}</style></defs><path id="twitter" class="cls-1" d="M1099.04 4825.94a4.711 4.711 0 0 1 3.63 1.44 7.749 7.749 0 0 0 2.35-.79c.19-.11.38-.21.57-.32a4.553 4.553 0 0 1-1.49 2.16 2.276 2.276 0 0 1-.5.36v.01a8.4 8.4 0 0 0 2.6-.71v.02a7.4 7.4 0 0 1-1.56 1.78l-.72.57a12.7 12.7 0 0 1-.21 2.96c-1.15 5.15-4.19 8.66-9 10.16a13.761 13.761 0 0 1-6.5.26 16.882 16.882 0 0 1-2.71-.88 10.6 10.6 0 0 1-1.3-.67c-.13-.08-.27-.16-.4-.25a7.092 7.092 0 0 0 1.47.06c.45-.07.89-.05 1.31-.15a9.107 9.107 0 0 0 2.76-.99 5.138 5.138 0 0 0 1.24-.82 4.085 4.085 0 0 1-1.37-.24 4.628 4.628 0 0 1-2.91-2.94 4.486 4.486 0 0 0 2.05-.09 3.366 3.366 0 0 1-1.5-.6 4.418 4.418 0 0 1-2.16-3.94c.15.08.31.15.47.22a4.489 4.489 0 0 0 .96.27 1.461 1.461 0 0 0 .63.06h-.02c-.24-.27-.61-.45-.84-.74a4.7 4.7 0 0 1-1.04-4.17 5.319 5.319 0 0 1 .5-1.19.031.031 0 0 1 .02.01 3.717 3.717 0 0 0 .41.48 8.866 8.866 0 0 0 1.37 1.3 13.488 13.488 0 0 0 5.62 2.72 8.776 8.776 0 0 0 2.06.27 4.386 4.386 0 0 1 .02-2.16 4.519 4.519 0 0 1 2.61-3.08 5.075 5.075 0 0 1 1.02-.32z" transform="translate(-1083.81 -4825.94)"/></svg>